<svg width="18" height="18" viewBox="0 0 18 18" fill="none" xmlns="http://www.w3.org/2000/svg">
<path d="M17.6589 7.33402C17.737 7.33402 17.8003 7.39888 17.8003 7.47889V9C17.8003 9.56932 17.7487 10.126 17.6497 10.666C16.8835 14.8604 13.2752 18.0303 8.95014 17.9998C4.09707 17.9655 0.213154 13.9498 0.223899 8.97972C0.234576 4.01857 4.16518 0 9.0121 0C11.3867 0 13.5413 0.964758 15.1232 2.53188C15.1803 2.58845 15.1818 2.68168 15.1256 2.7392L13.0242 4.89115C12.9701 4.94656 12.8827 4.948 12.8273 4.89396C11.8345 3.92614 10.4912 3.33197 9.0121 3.33197C5.95781 3.33197 3.49831 5.83284 3.47757 8.96066C3.45673 12.109 5.94271 14.668 9.0121 14.668C11.5025 14.668 13.6089 12.9832 14.3034 10.666H9.15357C9.07544 10.666 9.0121 10.6011 9.0121 10.5211V7.47886C9.0121 7.39884 9.07544 7.33398 9.15357 7.33398H17.6589V7.33402Z" fill="#2196F3"/>
<path d="M17.6585 7.33398H16.5976C16.6757 7.33398 16.739 7.39885 16.739 7.47886V8.99997C16.739 9.56929 16.6874 10.126 16.5884 10.666C15.8575 14.6675 12.5397 17.7365 8.48071 17.9837C8.63602 17.9931 8.79235 17.9986 8.94979 17.9997C13.2749 18.0303 16.8832 14.8604 17.6493 10.666C17.7484 10.126 17.8 9.56929 17.8 8.99997V7.47883C17.8 7.39885 17.7366 7.33398 17.6585 7.33398Z" fill="#1E88E5"/>
<path d="M3.98457 6.62632L1.31555 4.65138C2.81292 1.87787 5.69834 0 9.01171 0C11.3864 0 13.5409 0.964758 15.1228 2.53188C15.1799 2.58845 15.1814 2.68168 15.1252 2.7392L13.0238 4.89115C12.9698 4.94645 12.8824 4.94817 12.8271 4.89424C11.8343 3.92625 10.4909 3.332 9.01171 3.332C6.78266 3.332 4.86126 4.68144 3.98457 6.62632Z" fill="#F44336"/>
<path d="M3.21411 6.05622L3.98463 6.62635C4.78484 4.85117 6.45556 3.57268 8.43601 3.36297C8.45091 3.36132 8.46522 3.35931 8.48039 3.35784C8.30611 3.34089 8.12948 3.33203 7.95083 3.33203C5.9372 3.33203 4.18229 4.41917 3.21411 6.05622Z" fill="#E53935"/>
<path d="M14.0618 2.53188C14.1189 2.58845 14.1204 2.68168 14.0642 2.73923L12.3586 4.4859C12.522 4.61317 12.6784 4.74929 12.8269 4.894C12.8823 4.94803 12.9697 4.94659 13.0238 4.89118L15.1252 2.73923C15.1813 2.68168 15.1798 2.58848 15.1227 2.53188C13.5409 0.964758 11.3863 0 9.0117 0C8.83349 0 8.6567 0.00608203 8.48114 0.0168047C10.6452 0.148816 12.5986 1.08232 14.0618 2.53188Z" fill="#E53935"/>
<path d="M15.4585 15.1164C13.8536 16.89 11.5591 18 9.01176 18C5.57109 18 2.59229 15.9751 1.14972 13.0252L3.87459 11.1129C4.69227 13.1965 6.68438 14.668 9.01176 14.668C10.4723 14.668 11.8006 14.0885 12.7895 13.1418L15.4585 15.1164Z" fill="#4CAF50"/>
<path d="M3.87467 11.1129L3.07117 11.6768C4.0044 13.4572 5.8396 14.668 7.95087 14.668C8.12941 14.668 8.3059 14.659 8.48012 14.6421C6.38437 14.4375 4.62929 13.0359 3.87467 11.1129Z" fill="#43A047"/>
<path d="M9.01181 18.0001C11.5592 18.0001 13.8537 16.89 15.4585 15.1165L14.8048 14.6328C13.2979 16.5534 11.0373 17.8275 8.48267 17.9837C8.65774 17.9944 8.83413 18.0001 9.01181 18.0001Z" fill="#43A047"/>
<path d="M3.47711 8.99998C3.47711 9.74677 3.61821 10.4599 3.87461 11.1129L1.14971 13.0252C0.557017 11.8141 0.223511 10.4469 0.223511 8.99998C0.223511 7.42273 0.619599 5.94034 1.31559 4.65137L3.9846 6.6263C3.65889 7.3481 3.47711 8.15251 3.47711 8.99998Z" fill="#FFC107"/>
<path d="M3.0711 11.6768L3.8746 11.1129C3.6182 10.4599 3.47711 9.74676 3.47711 8.99997C3.47711 8.15249 3.65888 7.34808 3.98459 6.62628L3.21408 6.05615C2.71373 6.90219 2.42334 7.89497 2.41627 8.96066C2.40975 9.94342 2.64754 10.8688 3.0711 11.6768Z" fill="#FFB300"/>
</svg>
