<svg width="99" height="30" viewBox="0 0 99 30" fill="none" xmlns="http://www.w3.org/2000/svg">
<path d="M0 30V0H44.5L54.5 15.5L44.5 30H0Z" fill="white"/>
<rect x="55" width="44" height="30" fill="#FF6B08"/>
<path d="M72.696 18.424H74.056V21H68.616V18.424H69.976V12.36H68.616V9.8H74.056V12.36H72.696V18.424ZM82.7275 12.36V21H80.0075V12.36H77.1435V9.8H85.5915V12.36H82.7275Z" fill="white"/>
<path d="M18.528 9.704C20.192 9.704 21.6 10.3227 22.752 11.56L20.992 13.192C20.3093 12.5733 19.488 12.264 18.528 12.264C17.6747 12.264 16.9653 12.5573 16.4 13.144C15.8347 13.72 15.552 14.4773 15.552 15.416C15.552 16.3547 15.8347 17.112 16.4 17.688C16.9653 18.264 17.6747 18.552 18.528 18.552C19.072 18.552 19.5733 18.4453 20.032 18.232V16.696H18.528V14.648H22.752V19.272C21.6 20.5093 20.192 21.128 18.528 21.128C16.9493 21.128 15.6053 20.5733 14.496 19.464C13.3867 18.344 12.832 16.9947 12.832 15.416C12.832 13.8373 13.3867 12.4933 14.496 11.384C15.6053 10.264 16.9493 9.704 18.528 9.704ZM26.6991 11.368C27.8085 10.248 29.1525 9.688 30.7311 9.688C32.3098 9.688 33.6538 10.248 34.7631 11.368C35.8831 12.4773 36.4431 13.8213 36.4431 15.4C36.4431 16.9787 35.8831 18.328 34.7631 19.448C33.6538 20.5573 32.3098 21.112 30.7311 21.112C29.1525 21.112 27.8085 20.5573 26.6991 19.448C25.5898 18.328 25.0351 16.9787 25.0351 15.4C25.0351 13.8213 25.5898 12.4773 26.6991 11.368ZM32.8591 13.128C32.2938 12.5413 31.5845 12.248 30.7311 12.248C29.8778 12.248 29.1685 12.5413 28.6031 13.128C28.0378 13.704 27.7551 14.4613 27.7551 15.4C27.7551 16.3493 28.0378 17.112 28.6031 17.688C29.1685 18.2533 29.8778 18.536 30.7311 18.536C31.5951 18.536 32.3098 18.2533 32.8751 17.688C33.4405 17.112 33.7231 16.3493 33.7231 15.4C33.7231 14.4613 33.4351 13.704 32.8591 13.128Z" fill="#141D2D"/>
</svg>
